<?xml version="1.0" encoding="UTF-8"?><svg id="Layer_1" xmlns="http://www.w3.org/2000/svg" viewBox="0 0 300 500"><defs><style>.cls-1{fill:#fff;}.cls-2{fill:#424242;}.cls-3{fill:#d9d9d9;}</style></defs><polygon class="cls-3" points="225.17 322.51 153.26 426.22 117.3 374.36 82.31 323.89 81.35 322.51 81.35 62.53 223.81 62.53 223.81 322.51 225.17 322.51"/><polygon points="156.67 428.58 149.86 423.15 221.01 321.22 219.66 57.02 227.96 56.98 229.32 323.79 156.67 428.58"/><polygon class="cls-2" points="152.08 420.27 147.65 415.96 214.79 318.68 212.72 65.32 219.64 65.27 221.72 320.8 152.08 420.27"/><polygon class="cls-1" points="149.91 423.14 77.2 323.86 77.2 58.42 219.59 57 219.68 65.3 85.5 66.64 85.5 321.15 155.09 416.22 149.91 423.14"/></svg>